
    <svg
      width="380"
      height="380"
      viewBox="0 0 380 380"
      xmlns="http://www.w3.org/2000/svg"
      xmlns:xlink="http://www.w3.org/1999/xlink"
    >
      <path stroke="none" stroke-width="0" fill="#736EBE" d="M190,344.44640284071545C221.76882013835143,342.22484143057807,256.7371838102986,352.7336557055137,283.11508679784987,334.8899032396989C309.3921918461581,317.1143371447934,313.2676603718352,281.1704131961172,326.29821148501543,252.24530753682916C339.2510772133272,223.49264722893002,358.2366857698419,197.16592317911338,359.3563345022687,165.6502351480218C360.59975449070123,130.65065419719272,356.69854838128936,91.87027775681496,332.90890011885233,66.16873314271058C309.2542638850724,40.61305103315825,269.89320553852934,41.460728352758956,236.2136024634263,32.61092382720827C203.59903934922076,24.04097400911434,169.5897362439376,1.7080316031016078,138.6520450477404,15.124925076029138C107.60614050025592,28.588747939949723,101.90825810429303,69.52904630846052,84.36274428273308,98.46479686067529C70.1052666073048,121.97797645265852,52.893375432073185,142.77575362575254,45.23540463284568,169.1859934472379C36.64071789255376,198.82670950018328,30.468374166634,229.56235055912063,37.646096132971024,259.57769656194137C45.73870651260222,293.4188653547483,57.72450165764548,331.59278373325634,88.12179144659598,348.52558685342314C118.42635770464071,365.40673835252977,155.39531479132316,346.8662734224606,190,344.44640284071545" />
    </svg>
