
    <svg
      width="300"
      height="300"
      viewBox="0 0 300 300"
      xmlns="http://www.w3.org/2000/svg"
      xmlns:xlink="http://www.w3.org/1999/xlink"
    >
      <path stroke="none" stroke-width="0" fill="#FFD0C9" d="M150,259.5481518388945C173.74630055522425,257.09704587333795,200.58967580564047,272.8428581906521,220.1659347526205,259.18032562329057C239.78910719159154,245.48505150332127,235.10851746983283,215.17395077120858,244.87990346761717,193.33020005222724C254.5453158365636,171.72335139930354,274.23444316861134,155.19887121298967,277.185819224083,131.7134398916083C280.60510524933284,104.5046377583502,281.5601009065033,72.2423970784725,262.5847481172011,52.44476042732693C243.58951198825923,32.626378805694145,210.57547962334897,41.05248074188746,183.9364257053362,34.423148041823296C158.72842886811043,28.149944862368898,133.21196693299552,2.434657558104643,110.2218574536537,14.528087543190699C85.94850286687368,27.296539753571203,91.89592989588799,64.56416624540319,79.82184419729622,89.19028184018157C71.60573247280772,105.94773429809034,57.45407430418532,118.301891500191,50.79394589094651,135.73632278622725C42.611498242561645,157.15577785165613,33.73497515054845,178.95654712592173,36.852396995571766,201.67277889658865C40.55925203377085,228.68413070398745,45.59022766859562,262.2786787948119,69.86364033974432,274.6946096110418C94.5666425134591,287.33027687782766,122.3996012247575,262.3970799038117,150,259.5481518388945" />
    </svg>
