
    <svg
      width="600"
      height="600"
      viewBox="0 0 600 600"
      xmlns="http://www.w3.org/2000/svg"
      xmlns:xlink="http://www.w3.org/1999/xlink"
    >
      <path stroke="none" stroke-width="0" fill="#1A1837" d="M300,567.6978227825692C339.4887269458533,574.0831984545932,382.0134041802359,582.549644468059,418.688497561074,566.578730161613C455.37426363954245,550.6031682122147,479.6245669299121,514.6356248222396,500.3914678036591,480.4332880531951C519.5753494122462,448.83812692138457,522.145785710488,411.03592529408195,534.3213351390788,376.1356170342786C546.7434077362692,340.52866841891887,577.3233350148323,308.7714359876039,573.3620653275497,271.26848917310207C569.4006245978449,233.7639230306157,536.8860014260085,206.27285226020888,513.2734265847247,176.86652975031538C491.91474684828455,150.26713392258208,466.01918240802803,129.174750441833,440.8096743617083,106.19210998111146C413.1715678749139,80.99539994480187,390.95090210151886,48.64113816718009,356.543944265504,33.98165729983869C320.39349341956904,18.579341144847522,279.77647311057353,16.973804199623228,240.68075122356802,20.924876134754765C199.62020731773873,25.07451591213104,153.9749392859019,29.33173481276368,123.81462096817802,57.50162964923915C93.45138396753504,85.86105159540786,96.5685702481305,134.72264772211017,78.68898894181,172.22602819092558C62.20702227824122,206.7978370083748,31.671538639804126,233.70286550468785,22.128133243533586,270.7944899427155C12.10711659639541,309.7424095300073,7.710385728387992,352.77605513500964,22.62529446799506,390.1245050641508C37.4564736660237,427.263287696909,73.05152120046858,451.2175627333531,104.19656692183007,476.3022030309855C132.49788987405796,499.09647061868225,164.3247865810003,515.4022076903373,197.25349935193694,530.7724188455225C230.5955695087732,546.3355737804426,263.6763640025679,561.8242462062593,300,567.6978227825692" />
    </svg>
