
    <svg
      width="460"
      height="460"
      viewBox="0 0 460 460"
      xmlns="http://www.w3.org/2000/svg"
      xmlns:xlink="http://www.w3.org/1999/xlink"
    >
      <path stroke="none" stroke-width="0" fill="#68E9DD" d="M230,432.44131584718286C264.55694373144667,428.4050697022816,295.5299072117033,413.0680916633678,326.035077377289,396.337633326273C357.117730708443,379.29045628249764,388.7794136025161,362.35028617372706,409.82045667283137,333.81938906586066C432.1342052283227,303.5627491264802,449.9042359463184,267.57568836036995,448.70620453464136,230C447.51881535346837,192.75810016385577,427.4139218897916,158.35637054907912,403.319937700314,129.9336873127946C381.36084621439494,104.0294492858832,347.0111692472288,95.14086195891436,318.60729553071525,76.52766221953065C288.2279998059373,56.6199586115418,266.2168098870234,19.105988735243645,230.00000000000006,16.356269970669292C193.76688366169904,13.605313157928867,163.38057005589994,42.11724066169796,133.26844232788847,62.456027416623684C104.85985914400011,81.64418046265321,74.56600460175468,100.76508067914003,59.465012640737356,131.54157914188016C44.704052739656284,161.6250770257891,53.22116485680091,196.56000529000096,51.06025395449251,229.99999999999997C48.73790356171854,265.93826324174955,33.973981328633734,302.23242308470003,46.24699059317071,336.0898494454365C59.19755782711009,371.8164481142605,86.4208804403085,402.7463266410051,120.07620337984648,420.3936007069737C153.28707669165485,437.8078262176468,192.75363592772317,436.79168590787526,230,432.44131584718286" />
    </svg>
